# AST/ASF file generated using VICON BodyLanguage
# -----------------------------------------------
:version 1.10
:name VICON
:units
  mass 1.0
  length 0.45
  angle deg
:documentation
   .ast/.asf automatically generated from VICON data using
   VICON BodyBuilder and BodyLanguage model FoxedUp or BRILLIANT.MOD
:root
   order TX TY TZ RX RY RZ
   axis XYZ
   position 0 0 0  
   orientation 0 -0 0 
:bonedata
  begin
     id 1 
     name lhipjoint
     direction 0.515797 -0.759363 0.396637 
     length 2.47888 
     axis 0 -0 0  XYZ
  end
  begin
     id 2 
     name lfemur
     direction 0.34202 -0.939693 0  
     length 6.81885  
     axis 0 -0 20  XYZ
    dof rx ry rz
    limits (-160.0 20.0)
           (-70.0 70.0)
           (-60.0 70.0)
  end
  begin
     id 3 
     name ltibia
     direction 0.342037 -0.939687 0   
     length 7.89258   
     axis 0 -0 20   XYZ
    dof rx
    limits (-10.0 170.0)
  end
  begin
     id 4 
     name lfoot
     direction 0.173497 -0.476678 0.861787   
     length 2.51543   
     axis -90 -1.13533e-015 20   XYZ
    dof rx rz
    limits (-45.0 90.0)
           (-70.0 20.0)
  end
  begin
     id 5 
     name ltoes
     direction 1.53564e-011 -4.21897e-011 1   
     length 1.21388   
     axis -90 -1.13533e-015 20   XYZ
    dof rx
    limits (-90.0 20.0)
  end
  begin
     id 6 
     name rhipjoint
     direction -0.489454 -0.772941 0.403729   
     length 2.43534  
     axis 0 -0 0  XYZ 
  end
  begin
     id 7 
     name rfemur
     direction -0.34202 -0.939693 0   
     length 7.10357   
     axis 0 -0 -20   XYZ
    dof rx ry rz
    limits (-160.0 20.0)
           (-70.0 70.0)
           (-70.0 60.0)
  end
  begin
     id 8 
     name rtibia
     direction -0.34202 -0.939693 0   
     length 9.16127   
     axis 0 -0 -20   XYZ
    dof rx
    limits (-10.0 170.0)
 end
 begin
     id 9 
     name rfoot
     direction -0.270974 -0.748671 0.605033   
     length 1.74894  
     axis -90 1.13533e-015 -20   XYZ
    dof rx rz
    limits (-45.0 90.0)
           (-20.0 70.0)
  end
  begin
     id 10 
     name rtoes
     direction -1.53557e-011 -4.21759e-011 1   
     length 0.787585   
     axis -90 1.13533e-015 -20   XYZ
    dof rx
    limits (-90.0 20.0)
  end
  begin
     id 11 
     name lowerback
     direction -0.0140249 0.999561 0.0260968   
     length 2.16963   
     axis 0 -0 0   XYZ
    dof rx ry rz
    limits (-20.0 45.0)
           (-30.0 30.0)
           (-30.0 30.0)
  end
  begin
     id 12 
     name upperback
     direction 0.00860018 0.999959 -0.002711   
     length 2.1726   
     axis 0 -0 0   XYZ
    dof rx ry rz
    limits (-20.0 45.0)
           (-30.0 30.0)
           (-30.0 30.0)
  end
  begin
     id 13 
     name thorax
     direction 0.015211 0.999782 -0.0143191   
     length 2.17061   
     axis 0 -0 0   XYZ
    dof rx ry rz
    limits (-20.0 45.0)
           (-30.0 30.0)
           (-30.0 30.0)
  end
  begin
     id 14 
     name lowerneck
     direction -0.0140143 0.999447 0.030145   
     length 2.26749   
     axis 0 -0 0   XYZ
    dof rx ry rz
    limits (-20.0 45.0)
           (-30.0 30.0)
           (-30.0 30.0)
  end
  begin
     id 15 
     name upperneck
     direction 0.118062 0.961438 -0.248392   
     length 2.22728   
     axis 0 -0 0   XYZ
    dof rx ry rz
    limits (-20.0 45.0)
           (-30.0 30.0)
           (-30.0 30.0)
  end
  begin
     id 16
     name head
     direction 0.0431885 0.9954 -0.085514  
     length 2.28786  
     axis 0 -0 0   XYZ
    dof rx ry rz
    limits (-20.0 45.0)
           (-30.0 30.0)
           (-30.0 30.0)
  end
  begin
     id 17 
     name lclavicle
     direction 0.912126 0.409548 0.0172323  
     length 4.31571  
     axis 0 -0 0   XYZ
    dof ry rz
    limits (-20.0 10.0)
           (0.0 20.0)
  end
  begin
     id 18 
     name lhumerus
     direction 1 -4.48977e-011 1.93091e-027   
     length 5.13658   
     axis 180 -30 -90   XYZ
    dof rx ry rz
    limits (-60.0 90.0)
           (-90.0 90.0)
           (-90.0 90.0)
  end
  begin
     id 19
     name lradius
     direction 1 -4.48916e-011 6.84018e-027   
     length 3.22473   
     axis 180 -30 -90   XYZ
    dof rx
    limits (-10.0 170.0)
  end
  begin
     id 20
     name lwrist
     direction 1 -4.48987e-011 7.01981e-027   
     length 1.61236   
     axis -4.37994e-015 90 90   XYZ
    dof ry
    limits (-180.0 0.0)
 end
  begin
     id 21 
     name lhand
     direction 1 -4.49037e-011 1.40335e-026   
     length 0.936406   
     axis -8.96029e-015 90 90   XYZ
    dof rx rz
    limits (-90.0 90.0)
           (-45.0 45.0)
  end
  begin
     id 22 
     name lfingers
     direction 1 -4.48886e-011 2.8104e-026   
     length 0.754955   
     axis -1.79203e-014 90 90   XYZ
    dof rx
    limits (0.0 90.0)
  end
  begin
     id 23
     name lthumb
     direction 0.707107 -6.34937e-011 0.707107   
     length 1.08397   
     axis -90 45 -4.48555e-014   XYZ
    dof rx rz
    limits (-45.0 45.0)
           (-45.0 45.0)
  end
  begin
     id 24 
     name rclavicle
     direction -0.947962 0.317997 0.0156638   
     length 4.86918  
     axis 0 -0 0   XYZ 
    dof ry rz
    limits (-10.0 20.0)
           (-20.0 0.0)
  end
  begin
     id 25 
     name rhumerus
     direction -1 -4.48951e-011 2.80534e-018  
     length 5.60911   
     axis 180 30 90   XYZ
    dof rx ry rz
    limits (-90.0 60.0)
           (-90.0 90.0)
           (-90.0 90.0)
  end
  begin
     id 26 
     name rradius
     direction -1 -4.4898e-011 2.11315e-027   
     length 3.38704   
     axis 180 30 90   XYZ
    dof rx
    limits (-10.0 170.0)
  end
  begin
     id 27 
     name rwrist
     direction -1 -4.48933e-011 7.02314e-027   
     length 1.69352   
     axis -4.37994e-015 -90 -90   XYZ
    dof ry
    limits (-180.0 0.0)
  end
  begin
     id 28
     name rhand
     direction -1 -4.48937e-011 1.40458e-026   
     length 0.755878   
     axis -8.96029e-015 -90 -90   XYZ
    dof rx rz
    limits (-90.0 90.0)
           (-45.0 45.0)
  end
  begin
     id 29
     name rfingers
     direction -1 -4.4901e-011 2.80737e-026   
     length 0.609409   
     axis -1.79203e-014 -90 -90   XYZ
    dof rx
    limits (0.0 90.0)
  end
  begin
     id 30
     name rthumb
     direction -0.707107 -6.34968e-011 0.707107   
     length 0.874992   
     axis -90 -45 4.48555e-014   XYZ
    dof rx rz
    limits (-45.0 45.0)
           (-45.0 45.0)
  end
:hierarchy
  begin
    root lhipjoint rhipjoint lowerback
    lhipjoint lfemur
    lfemur ltibia
    ltibia lfoot
    lfoot ltoes
    rhipjoint rfemur
    rfemur rtibia
    rtibia rfoot
    rfoot rtoes
    lowerback upperback
    upperback thorax
    thorax lowerneck lclavicle rclavicle
    lowerneck upperneck
    upperneck head
    lclavicle lhumerus
    lhumerus lradius
    lradius lwrist
    lwrist lhand lthumb
    lhand lfingers
    rclavicle rhumerus
    rhumerus rradius
    rradius rwrist
    rwrist rhand rthumb
    rhand rfingers
  end

#!OML:ASF C:\ViconDB\ViconDB\414\Spring2016\041811\Spring2016.ASF
:FULLY-SPECIFIED
:DEGREES
1
root 11.4753 18.1068 29.5077 -174.114 -17.0058 178.711
lowerback 3.05282 0.751066 -2.71327
upperback 0.741479 0.911383 1.23905
thorax -1.01315 0.454148 2.75922
lowerneck -11.3761 -2.55834 -9.70679
upperneck 20.4852 -5.39097 13.0753
head 8.84729 -2.35743 5.48602
rclavicle -3.3197e-014 -1.19271e-015
rhumerus -41.4093 -1.46086 -78.2207
rradius 93.4109
rwrist 18.2835
rhand -43.104 -13.4553
rfingers 7.12502
rthumb -15.9585 -42.8179
lclavicle -3.3197e-014 -1.19271e-015
lhumerus -55.0099 -15.7714 87.4431
lradius 42.7018
lwrist -28.3381
lhand -28.206 16.0112
lfingers 7.12502
lthumb -1.58489 45.9851
rfemur -19.0871 -13.0949 20.6214
rtibia 33.2455
rfoot -166.442 8.16352
rtoes -17.5801
lfemur -1.47123 -11.5298 -13.8891
ltibia 29.5059
lfoot -13.6314 -10.6638
ltoes -17.8222
2
root 11.467 18.1083 29.4998 -174.047 -16.966 178.76
lowerback 2.91112 0.761131 -2.63368
upperback 0.732652 0.931259 1.19531
thorax -0.942244 0.463385 2.67016
lowerneck -11.3829 -2.5252 -9.54125
upperneck 20.5426 -5.39052 13.0587
head 8.86321 -2.34899 5.4522
rclavicle 8.00108e-014 -7.55382e-015
rhumerus -41.3132 -1.63792 -78.3234
rradius 93.4419
rwrist 18.3125
rhand -43.1603 -13.3887
rfingers 7.12502
rthumb -16.0127 -42.7469
lclavicle 8.00108e-014 -7.55382e-015
lhumerus -55.0484 -16.0866 87.4956
lradius 42.7673
lwrist -28.073
lhand -28.2149 15.6872
lfingers 7.12502
lthumb -1.5935 45.661
rfemur -19.1425 -13.1583 20.6602
rtibia 33.2374
rfoot -166.418 8.20257
rtoes -17.4662
lfemur -1.51608 -11.4842 -13.8555
ltibia 29.5107
lfoot -13.6634 -10.6602
ltoes -17.8636
3
root 11.4603 18.1076 29.4927 -174.012 -16.9512 178.769
lowerback 2.77307 0.715697 -2.52773
upperback 0.783298 0.876427 1.08801
thorax -0.806137 0.433233 2.50411
lowerneck -11.475 -2.52607 -9.49314
upperneck 20.6219 -5.4806 13.2968
head 8.92462 -2.36926 5.51984
rclavicle -2.76808e-014 3.97569e-015
rhumerus -40.9692 -1.72432 -78.6285
rradius 93.2814
rwrist 18.1445
rhand -43.1612 -13.2716
rfingers 7.12502
rthumb -16.0136 -42.6297
lclavicle -2.76808e-014 3.97569e-015
lhumerus -54.9907 -16.2355 87.365
lradius 42.6915
lwrist -27.976
lhand -28.4989 15.306
lfingers 7.12502
lthumb -1.86774 45.2776
rfemur -19.1432 -13.2156 20.6458
rtibia 33.211
rfoot -166.374 8.25229
rtoes -17.4008
lfemur -1.51797 -11.4918 -13.8721
ltibia 29.5103
lfoot -13.6777 -10.6468
ltoes -17.9948
4
root 11.451 18.1056 29.4885 -174.163 -16.8666 178.851
lowerback 2.89243 0.709708 -2.39485
upperback 0.813195 0.868086 1.06332
thorax -0.839489 0.428455 2.40313
lowerneck -11.4094 -2.51017 -9.51476
upperneck 20.6029 -5.5116 13.4729
head 8.91494 -2.37687 5.5823
rclavicle -1.51573e-014 -6.75868e-015
rhumerus -40.9185 -1.78358 -78.7435
rradius 93.3385
rwrist 18.616
rhand -42.6731 -13.3912
rfingers 7.12502
rthumb -15.5436 -42.7865
lclavicle -1.51573e-014 -6.75868e-015
lhumerus -55.1105 -16.3462 87.4428
lradius 42.8285
lwrist -27.8683
lhand -28.3882 15.7084
lfingers 7.12502
lthumb -1.76083 45.6809
rfemur -19.0029 -13.1316 20.6775
rtibia 33.2473
rfoot -166.405 8.28706
rtoes -17.4871
lfemur -1.28666 -11.4281 -13.8403
ltibia 29.4109
lfoot -13.6753 -10.6782
ltoes -18.1188
5
root 11.4443 18.1054 29.4818 -174.203 -16.8481 178.922
lowerback 2.99828 0.731671 -2.52409
upperback 0.747941 0.892284 1.22308
thorax -0.971602 0.443371 2.6377
lowerneck -11.3802 -2.51307 -9.51831
upperneck 20.7136 -5.48009 13.2613
head 8.93693 -2.38174 5.51421
rclavicle -2.43511e-015 -9.54166e-015
rhumerus -40.9756 -1.6988 -78.5352
rradius 93.4616
rwrist 18.6138
rhand -42.7596 -13.5179
rfingers 7.12502
rthumb -15.6268 -42.9067
lclavicle -2.43511e-015 -9.54166e-015
lhumerus -55.1728 -16.414 87.8808
lradius 42.7544
lwrist -27.5443
lhand -28.4588 15.8766
lfingers 7.12502
lthumb -1.82907 45.8485
rfemur -18.9444 -13.1507 20.7246
rtibia 33.2417
rfoot -166.411 8.33034
rtoes -17.5033
lfemur -1.30707 -11.271 -13.7803
ltibia 29.4101
lfoot -13.631 -10.7692
ltoes -18.5157
6
root 11.4296 18.1053 29.4589 -173.927 -16.7699 178.225
lowerback 2.69371 0.713736 -3.23632
upperback 0.77115 0.858315 1.07258
thorax -0.782842 0.425528 2.88846
lowerneck -11.3877 -2.5425 -9.62704
upperneck 20.7857 -5.53328 13.3334
head 8.97459 -2.41089 5.55506
rclavicle -1.42628e-014 -1.70955e-014
rhumerus -40.8233 -1.74274 -78.5372
rradius 93.2945
rwrist 18.6217
rhand -42.89 -12.6264
rfingers 7.12502
rthumb -15.7524 -42.0053
lclavicle -1.42628e-014 -1.70955e-014
lhumerus -55.05 -16.171 87.7216
lradius 42.6708
lwrist -28.3585
lhand -28.1669 15.6629
lfingers 7.12502
lthumb -1.54714 45.637
rfemur -18.9612 -13.5978 19.912
rtibia 33.2734
rfoot -166.135 8.68946
rtoes -17.4233
lfemur -1.19767 -11.3957 -14.6089
ltibia 29.3816
lfoot -13.7253 -10.6953
ltoes -18.3056
7
root 11.4311 18.1041 29.4678 -174.019 -16.7174 178.76
lowerback 2.84663 0.727903 -2.77873
upperback 0.698859 0.885414 1.21124
thorax -0.940164 0.441661 2.7705
lowerneck -11.3355 -2.54461 -9.64105
upperneck 20.7674 -5.55174 13.3818
head 8.96249 -2.41997 5.57214
rclavicle -4.41799e-014 2.78299e-015
rhumerus -40.7993 -1.48007 -78.896
rradius 93.4446
rwrist 17.3955
rhand -43.8456 -13.9138
rfingers 7.12502
rthumb -16.6726 -43.2178
lclavicle -4.41799e-014 2.78299e-015
lhumerus -55.17 -15.9862 87.7502
lradius 42.7108
lwrist -28.3983
lhand -28.3914 15.787
lfingers 7.12502
lthumb -1.76391 45.7595
rfemur -19.0682 -13.264 20.5249
rtibia 33.2596
rfoot -166.264 8.50424
rtoes -17.4684
lfemur -1.31166 -11.4029 -13.9944
ltibia 29.4388
lfoot -13.6823 -10.7073
ltoes -18.2535
8
root 11.4253 18.1023 29.4648 -174.13 -16.5529 178.921
lowerback 2.95575 0.771812 -2.59509
upperback 0.718588 0.945467 1.20647
thorax -0.982183 0.471115 2.65874
lowerneck -11.3524 -2.55203 -9.64164
upperneck 20.7638 -5.58238 13.4567
head 8.9707 -2.42842 5.59527
rclavicle -5.01931e-015 5.96354e-015
rhumerus -40.7415 -1.50386 -79.0694
rradius 93.5543
rwrist 17.2893
rhand -43.3545 -13.3129
rfingers 7.12502
rthumb -16.1997 -42.6561
lclavicle -5.01931e-015 5.96354e-015
lhumerus -55.0886 -16.065 87.7655
lradius 42.7477
lwrist -27.9816
lhand -28.4265 16.1268
lfingers 7.12502
lthumb -1.7978 46.099
rfemur -19.0066 -13.0324 20.6729
rtibia 33.2823
rfoot -166.352 8.46087
rtoes -17.4556
lfemur -1.20406 -11.337 -13.8643
ltibia 29.4593
lfoot -13.701 -10.6956
ltoes -18.455
9
root 11.4192 18.1029 29.4571 -173.96 -16.3923 178.731
lowerback 2.76806 0.76386 -2.60429
upperback 0.731484 0.939331 0.989222
thorax -0.859942 0.466994 2.44293
lowerneck -11.4069 -2.46993 -9.46107
upperneck 20.7608 -5.52579 13.5395
head 8.97003 -2.38125 5.59906
rclavicle -1.70458e-014 -5.96354e-015
rhumerus -40.6924 -1.50963 -79.451
rradius 93.6063
rwrist 17.6975
rhand -43.2668 -13.5135
rfingers 7.12502
rthumb -16.1153 -42.8635
lclavicle -1.70458e-014 -5.96354e-015
lhumerus -54.9482 -16.1893 87.5952
lradius 42.706
lwrist -27.6998
lhand -28.3033 15.7374
lfingers 7.12502
lthumb -1.67885 45.7106
rfemur -19.0895 -13.0281 20.4489
rtibia 33.2542
rfoot -166.276 8.58342
rtoes -17.4058
lfemur -1.38824 -11.1426 -14.1068
ltibia 29.5868
lfoot -13.7265 -10.68
ltoes -18.8471
10
root 11.4136 18.1006 29.4484 -173.948 -16.3589 178.762
lowerback 2.82582 0.782386 -2.6714
upperback 0.665859 0.961683 1.04988
thorax -0.963111 0.481016 2.54103
lowerneck -11.3468 -2.51262 -9.56883
upperneck 20.7755 -5.5895 13.5934
head 8.97629 -2.41882 5.63053
rclavicle 2.1916e-014 3.57812e-015
rhumerus -40.6581 -1.73484 -79.3613
rradius 93.495
rwrist 18.367
rhand -42.9475 -13.3883
rfingers 7.12502
rthumb -15.8078 -42.7629
lclavicle 2.1916e-014 3.57812e-015
lhumerus -54.9918 -16.1124 87.7234
lradius 42.6452
lwrist -27.8916
lhand -28.3209 15.7256
lfingers 7.12502
lthumb -1.6958 45.6986
rfemur -19.0832 -13.0711 20.4699
rtibia 33.2665
rfoot -166.253 8.65324
rtoes -17.4199
lfemur -1.3681 -11.1266 -14.0725
ltibia 29.6419
lfoot -13.7223 -10.7442
ltoes -18.7423
11
root 11.4058 18.0986 29.4407 -173.952 -16.2937 178.773
lowerback 2.80525 0.787175 -2.76217
upperback 0.683913 0.966222 1.14869
thorax -0.936539 0.48254 2.69406
lowerneck -11.3048 -2.49511 -9.7018
upperneck 20.679 -5.50441 13.5579
head 8.92638 -2.38926 5.649
rclavicle -1.67476e-014 -5.56597e-015
rhumerus -40.5774 -1.70291 -79.3119
rradius 93.511
rwrist 18.5417
rhand -42.8652 -13.2564
rfingers 7.12502
rthumb -15.7285 -42.6372
lclavicle -1.67476e-014 -5.56597e-015
lhumerus -55.0462 -15.8283 87.8527
lradius 42.7354
lwrist -27.7658
lhand -28.3521 15.2509
lfingers 7.12502
lthumb -1.726 45.2237
rfemur -19.0733 -13.0462 20.4552
rtibia 33.2954
rfoot -166.243 8.70455
rtoes -17.5067
lfemur -1.35281 -10.9429 -14.0498
ltibia 29.6996
lfoot -13.6781 -10.9022
ltoes -18.7262
12
root 11.3993 18.0944 29.4334 -173.998 -16.2253 178.801
lowerback 2.8134 0.810478 -2.67714
upperback 0.730838 0.998384 1.05248
thorax -0.891989 0.496919 2.5462
lowerneck -11.3807 -2.49585 -9.47686
upperneck 20.6788 -5.5392 13.5184
head 8.93894 -2.38963 5.59039
rclavicle -1.51076e-014 -5.96354e-015
rhumerus -40.5116 -1.87534 -79.5735
rradius 93.5211
rwrist 18.5575
rhand -42.9177 -13.0267
rfingers 7.12502
rthumb -15.7791 -42.4036
lclavicle -1.51076e-014 -5.96354e-015
lhumerus -54.9011 -15.9526 87.8392
lradius 42.7381
lwrist -27.6306
lhand -28.4054 15.3164
lfingers 7.12502
lthumb -1.77743 45.2888
rfemur -19.026 -13.0134 20.4568
rtibia 33.3282
rfoot -166.281 8.74006
rtoes -17.4934
lfemur -1.3167 -10.844 -14.0559
ltibia 29.7509
lfoot -13.6832 -10.8995
ltoes -18.9027
13
root 11.393 18.0896 29.4258 -174.019 -16.1574 178.839
lowerback 2.75793 0.771978 -2.55059
upperback 0.80157 0.950658 0.970674
thorax -0.781925 0.469974 2.39391
lowerneck -11.4217 -2.48438 -9.42838
upperneck 20.5932 -5.54352 13.6242
head 8.9201 -2.37714 5.61646
rclavicle 5.45664e-014 -3.97569e-015
rhumerus -40.3647 -1.9743 -79.7523
rradius 93.4962
rwrist 19.2328
rhand -42.2696 -12.7068
rfingers 7.12502
rthumb -15.1549 -42.1319
lclavicle 5.45664e-014 -3.97569e-015
lhumerus -54.8541 -15.7831 87.6164
lradius 42.8542
lwrist -27.6442
lhand -28.3402 15.1633
lfingers 7.12502
lthumb -1.71446 45.1362
rfemur -19.0117 -12.9755 20.4728
rtibia 33.3671
rfoot -166.284 8.81297
rtoes -17.482
lfemur -1.26154 -11.0226 -14.0996
ltibia 29.8195
lfoot -13.736 -10.679
ltoes -18.7002
